<svg width="21" height="21" viewBox="0 0 21 21" fill="none" xmlns="http://www.w3.org/2000/svg">
<g clip-path="url(#clip0_270_369)">
<path d="M17.0625 7.8749C16.66 7.8749 16.2977 7.6299 16.1481 7.2554L15.4017 5.58327L13.727 4.7984C13.356 4.64177 13.1171 4.27602 13.125 3.87352C13.1329 3.47102 13.3849 3.11402 13.7611 2.9714L15.4656 2.32565L16.1481 0.618523C16.2977 0.244898 16.6591 -0.000976562 17.0625 -0.000976562C17.4659 -0.000976562 17.8272 0.244023 17.9769 0.618523L18.6637 2.33615L20.3814 3.02302C20.755 3.17265 21.0009 3.53402 21.0009 3.9374C21.0009 4.34077 20.7559 4.70215 20.3814 4.85177L18.6637 5.53865L17.9769 7.25627C17.8272 7.6299 17.4659 7.87577 17.0625 7.87577V7.8749ZM19.8292 9.16377C18.76 9.60565 17.5385 9.7544 16.2627 9.50327C13.8827 9.03427 11.9656 7.11715 11.4966 4.73715C11.2455 3.4614 11.3934 2.2399 11.8361 1.17065C12.0671 0.611524 11.6576 -0.000101563 11.053 -0.000101563H4.375C1.95912 -0.000101563 0 1.95902 0 4.3749V16.6249C0 19.0408 1.95912 20.9999 4.375 20.9999H16.625C19.0409 20.9999 21 19.0408 21 16.6249V9.9469C21 9.34227 20.3884 8.93277 19.8292 9.16377ZM11.9857 16.6249C11.5981 16.6249 11.2586 16.3676 11.1527 15.9949L10.5901 13.9999H6.03487L5.47225 15.9949C5.36725 16.3676 5.02687 16.6249 4.63925 16.6249C4.067 16.6249 3.65225 16.0789 3.80537 15.5276L6.51 5.80815C6.63337 5.27615 6.98337 4.82815 7.47075 4.57877C7.96775 4.32327 8.53825 4.30752 9.07987 4.53502C9.5935 4.75027 9.98725 5.2499 10.1334 5.87815L12.8205 15.5285C12.9736 16.0798 12.5597 16.6258 11.9866 16.6258L11.9857 16.6249ZM16.625 15.7499C16.625 16.2329 16.233 16.6249 15.75 16.6249C15.267 16.6249 14.875 16.2329 14.875 15.7499V11.4519C14.875 10.9689 15.267 10.5769 15.75 10.5769C16.233 10.5769 16.625 10.9689 16.625 11.4519V15.7499ZM8.21625 6.26927L6.52837 12.2499H10.0957L8.40788 6.26927C8.3825 6.16952 8.24075 6.16952 8.21625 6.26927Z" fill="#3F3D56" fill-opacity="0.6"/>
</g>
<defs>
<clipPath id="clip0_270_369">
<rect width="21" height="21" fill="white"/>
</clipPath>
</defs>
</svg>
