<svg width="23" height="23" viewBox="0 0 23 23" fill="none" xmlns="http://www.w3.org/2000/svg">
<path d="M18.6875 8.62498C18.2467 8.62498 17.8499 8.35665 17.686 7.94648L16.8686 6.11511L15.0343 5.25548C14.628 5.08394 14.3664 4.68336 14.375 4.24252C14.3836 3.80169 14.6596 3.41069 15.0717 3.25448L16.9385 2.54723L17.686 0.677523C17.8499 0.268315 18.2457 -0.000976562 18.6875 -0.000976562C19.1293 -0.000976562 19.5251 0.267357 19.689 0.677523L20.4412 2.55873L22.3225 3.31102C22.7317 3.4749 23.001 3.87069 23.001 4.31248C23.001 4.75427 22.7326 5.15006 22.3225 5.31394L20.4412 6.06623L19.689 7.94744C19.5251 8.35665 19.1293 8.62594 18.6875 8.62594V8.62498ZM21.7178 10.0366C20.5467 10.5206 19.2088 10.6835 17.8116 10.4084C15.2049 9.89477 13.1052 7.79506 12.5915 5.1884C12.3165 3.79115 12.4785 2.45332 12.9634 1.28223C13.2164 0.669857 12.7679 -1.82291e-05 12.1057 -1.82291e-05H4.79167C2.14571 -1.82291e-05 0 2.14569 0 4.79165V18.2083C0 20.8543 2.14571 23 4.79167 23H18.2083C20.8543 23 23 20.8543 23 18.2083V10.8943C23 10.2321 22.3301 9.78361 21.7178 10.0366ZM13.1272 18.2083C12.7027 18.2083 12.3309 17.9266 12.2149 17.5183L11.5987 15.3333H6.60962L5.99342 17.5183C5.87842 17.9266 5.50562 18.2083 5.08108 18.2083C4.45433 18.2083 4.00008 17.6103 4.16779 17.0066L7.13 6.3614C7.26512 5.77873 7.64846 5.28806 8.18225 5.01494C8.72658 4.73511 9.35142 4.71786 9.94462 4.96702C10.5072 5.20277 10.9384 5.74998 11.0985 6.43806L14.0415 17.0075C14.2092 17.6113 13.7559 18.2093 13.1282 18.2093L13.1272 18.2083ZM18.2083 17.25C18.2083 17.779 17.779 18.2083 17.25 18.2083C16.721 18.2083 16.2917 17.779 16.2917 17.25V12.5426C16.2917 12.0136 16.721 11.5843 17.25 11.5843C17.779 11.5843 18.2083 12.0136 18.2083 12.5426V17.25ZM8.99875 6.86644L7.15012 13.4166H11.0572L9.20863 6.86644C9.18083 6.75719 9.02558 6.75719 8.99875 6.86644Z" fill="#6D7E5E"/>
</svg>
