<svg width="23" height="23" viewBox="0 0 23 23" fill="none" xmlns="http://www.w3.org/2000/svg">
<g clip-path="url(#clip0_1197_76)">
<path d="M16.292 0H6.70866C4.06653 0 1.91699 2.14954 1.91699 4.79167V18.2083C1.91699 20.8505 4.06653 23 6.70866 23H16.292C18.9341 23 21.0837 20.8505 21.0837 18.2083V4.79167C21.0837 2.14954 18.9341 0 16.292 0ZM9.58366 18.2083C9.58366 18.7373 9.15433 19.1667 8.62533 19.1667H6.70866C6.17966 19.1667 5.75033 18.7373 5.75033 18.2083V16.2917C5.75033 15.7627 6.17966 15.3333 6.70866 15.3333H8.62533C9.15433 15.3333 9.58366 15.7627 9.58366 16.2917V18.2083ZM9.58366 12.4583C9.58366 12.9873 9.15433 13.4167 8.62533 13.4167H6.70866C6.17966 13.4167 5.75033 12.9873 5.75033 12.4583V10.5417C5.75033 10.0127 6.17966 9.58333 6.70866 9.58333H8.62533C9.15433 9.58333 9.58366 10.0127 9.58366 10.5417V12.4583ZM9.58366 6.70833C9.58366 7.23733 9.15433 7.66667 8.62533 7.66667H6.70866C6.17966 7.66667 5.75033 7.23733 5.75033 6.70833V4.79167C5.75033 4.26267 6.17966 3.83333 6.70866 3.83333H8.62533C9.15433 3.83333 9.58366 4.26267 9.58366 4.79167V6.70833ZM16.292 18.2083H12.4587C11.2052 18.2026 11.2061 16.2974 12.4587 16.2917H16.292C17.5455 16.2974 17.5445 18.2026 16.292 18.2083ZM16.292 12.4583H12.4587C11.2052 12.4526 11.2061 10.5474 12.4587 10.5417H16.292C17.5455 10.5474 17.5445 12.4526 16.292 12.4583ZM16.292 6.70833H12.4587C11.2052 6.70258 11.2061 4.79742 12.4587 4.79167H16.292C17.5455 4.79742 17.5445 6.70258 16.292 6.70833Z" fill="#6D7E5E"/>
</g>
<defs>
<clipPath id="clip0_1197_76">
<rect width="23" height="23" fill="white"/>
</clipPath>
</defs>
</svg>
