<svg width="21" height="23" viewBox="0 0 21 23" fill="none" xmlns="http://www.w3.org/2000/svg">
<path d="M15.292 0H5.70866C3.06653 0 0.916992 2.14954 0.916992 4.79167V18.2083C0.916992 20.8505 3.06653 23 5.70866 23H15.292C17.9341 23 20.0837 20.8505 20.0837 18.2083V4.79167C20.0837 2.14954 17.9341 0 15.292 0ZM8.58366 18.2083C8.58366 18.7373 8.15433 19.1667 7.62533 19.1667H5.70866C5.17966 19.1667 4.75033 18.7373 4.75033 18.2083V16.2917C4.75033 15.7627 5.17966 15.3333 5.70866 15.3333H7.62533C8.15433 15.3333 8.58366 15.7627 8.58366 16.2917V18.2083ZM8.58366 12.4583C8.58366 12.9873 8.15433 13.4167 7.62533 13.4167H5.70866C5.17966 13.4167 4.75033 12.9873 4.75033 12.4583V10.5417C4.75033 10.0127 5.17966 9.58333 5.70866 9.58333H7.62533C8.15433 9.58333 8.58366 10.0127 8.58366 10.5417V12.4583ZM8.58366 6.70833C8.58366 7.23733 8.15433 7.66667 7.62533 7.66667H5.70866C5.17966 7.66667 4.75033 7.23733 4.75033 6.70833V4.79167C4.75033 4.26267 5.17966 3.83333 5.70866 3.83333H7.62533C8.15433 3.83333 8.58366 4.26267 8.58366 4.79167V6.70833ZM15.292 18.2083H11.4587C10.2052 18.2026 10.2061 16.2974 11.4587 16.2917H15.292C16.5455 16.2974 16.5445 18.2026 15.292 18.2083ZM15.292 12.4583H11.4587C10.2052 12.4526 10.2061 10.5474 11.4587 10.5417H15.292C16.5455 10.5474 16.5445 12.4526 15.292 12.4583ZM15.292 6.70833H11.4587C10.2052 6.70258 10.2061 4.79742 11.4587 4.79167H15.292C16.5455 4.79742 16.5445 6.70258 15.292 6.70833Z" fill="#B6BBBE"/>
</svg>
