<svg width="23" height="19" viewBox="0 0 23 19" fill="none" xmlns="http://www.w3.org/2000/svg">
<path d="M20.0273 5.1875H14.3052V3.75H20.0273V5.1875ZM2.14578 0.875C0.961132 0.875 0 1.84082 0 3.03125V5.90625C0 7.09668 0.961132 8.0625 2.14578 8.0625H20.7426C21.9272 8.0625 22.8883 7.09668 22.8883 5.90625V3.03125C22.8883 1.84082 21.9272 0.875 20.7426 0.875H2.14578ZM20.0273 13.8125V15.25H8.58313V13.8125H20.0273ZM2.14578 10.9375C0.961132 10.9375 0 11.9033 0 13.0938V15.9688C0 17.1592 0.961132 18.125 2.14578 18.125H20.7426C21.9272 18.125 22.8883 17.1592 22.8883 15.9688V13.0938C22.8883 11.9033 21.9272 10.9375 20.7426 10.9375H2.14578Z" fill="#B6BBBE"/>
</svg>
