<svg width="23" height="18" viewBox="0 0 23 18" fill="none" xmlns="http://www.w3.org/2000/svg">
<path d="M20.0273 4.3125H14.3052V2.875H20.0273V4.3125ZM2.14578 0C0.961132 0 0 0.96582 0 2.15625V5.03125C0 6.22168 0.961132 7.1875 2.14578 7.1875H20.7426C21.9272 7.1875 22.8883 6.22168 22.8883 5.03125V2.15625C22.8883 0.96582 21.9272 0 20.7426 0H2.14578ZM20.0273 12.9375V14.375H8.58313V12.9375H20.0273ZM2.14578 10.0625C0.961132 10.0625 0 11.0283 0 12.2188V15.0938C0 16.2842 0.961132 17.25 2.14578 17.25H20.7426C21.9272 17.25 22.8883 16.2842 22.8883 15.0938V12.2188C22.8883 11.0283 21.9272 10.0625 20.7426 10.0625H2.14578Z" fill="#6D7E5E"/>
</svg>
