<svg width="23" height="23" viewBox="0 0 23 23" fill="none" xmlns="http://www.w3.org/2000/svg">
<path d="M22.8883 3.59375V5.75C22.8883 7.73555 17.764 9.34375 11.4442 9.34375C5.12433 9.34375 0 7.73555 0 5.75V3.59375C0 1.6082 5.12433 0 11.4442 0C17.764 0 22.8883 1.6082 22.8883 3.59375ZM20.0886 9.64473C21.1513 9.3123 22.1271 8.88555 22.8883 8.35996V12.9375C22.8883 14.923 17.764 16.5312 11.4442 16.5312C5.12433 16.5312 0 14.923 0 12.9375V8.35996C0.761242 8.89004 1.73706 9.3123 2.79974 9.64473C5.09368 10.3635 8.14887 10.7812 11.4442 10.7812C14.7395 10.7812 17.7947 10.3635 20.0886 9.64473ZM0 15.5475C0.761242 16.0775 1.73706 16.4998 2.79974 16.8322C5.09368 17.551 8.14887 17.9688 11.4442 17.9688C14.7395 17.9688 17.7947 17.551 20.0886 16.8322C21.1513 16.4998 22.1271 16.073 22.8883 15.5475V19.4062C22.8883 21.3918 17.764 23 11.4442 23C5.12433 23 0 21.3918 0 19.4062V15.5475Z" fill="#B6BBBE"/>
</svg>
