<svg width="22" height="20" viewBox="0 0 22 20" fill="none" xmlns="http://www.w3.org/2000/svg">
<path d="M0 3.75C0 3.05859 0.702232 2.5 1.57143 2.5H20.4286C21.2978 2.5 22 3.05859 22 3.75C22 4.44141 21.2978 5 20.4286 5H1.57143C0.702232 5 0 4.44141 0 3.75ZM0 10C0 9.30859 0.702232 8.75 1.57143 8.75H20.4286C21.2978 8.75 22 9.30859 22 10C22 10.6914 21.2978 11.25 20.4286 11.25H1.57143C0.702232 11.25 0 10.6914 0 10ZM22 16.25C22 16.9414 21.2978 17.5 20.4286 17.5H1.57143C0.702232 17.5 0 16.9414 0 16.25C0 15.5586 0.702232 15 1.57143 15H20.4286C21.2978 15 22 15.5586 22 16.25Z" fill="#3F3D56" fill-opacity="0.6"/>
</svg>
