<svg width="18" height="23" viewBox="0 0 18 23" fill="none" xmlns="http://www.w3.org/2000/svg">
<path d="M12.3979 0.2875C13.071 0.519395 13.6834 0.900664 14.1898 1.403L15.7691 2.99192C16.2696 3.50011 16.6494 4.11533 16.8802 4.79167H12.3979V0.2875ZM10.4905 11.5H6.67577C6.42284 11.5 6.18026 11.601 6.00141 11.7807C5.82256 11.9604 5.72209 12.2042 5.72209 12.4583C5.72209 12.7125 5.82256 12.9563 6.00141 13.136C6.18026 13.3157 6.42284 13.4167 6.67577 13.4167H10.4905C10.7434 13.4167 10.986 13.3157 11.1648 13.136C11.3437 12.9563 11.4442 12.7125 11.4442 12.4583C11.4442 12.2042 11.3437 11.9604 11.1648 11.7807C10.986 11.601 10.7434 11.5 10.4905 11.5ZM12.3979 6.70833C11.892 6.70833 11.4068 6.5064 11.0491 6.14695C10.6914 5.78751 10.4905 5.3 10.4905 4.79167V0H4.76841C3.50421 0.0015217 2.29223 0.506845 1.39831 1.40513C0.504385 2.30341 0.00151431 3.5213 0 4.79167V18.2083C0.00151431 19.4787 0.504385 20.6966 1.39831 21.5949C2.29223 22.4932 3.50421 22.9985 4.76841 23H12.3979C13.6621 22.9985 14.874 22.4932 15.768 21.5949C16.6619 20.6966 17.1647 19.4787 17.1663 18.2083V6.70833H12.3979ZM12.3979 19.1667H4.76841C4.51547 19.1667 4.2729 19.0657 4.09405 18.886C3.9152 18.7063 3.81472 18.4625 3.81472 18.2083C3.81472 17.9542 3.9152 17.7104 4.09405 17.5307C4.2729 17.351 4.51547 17.25 4.76841 17.25H12.3979C12.6508 17.25 12.8934 17.351 13.0722 17.5307C13.2511 17.7104 13.3515 17.9542 13.3515 18.2083C13.3515 18.4625 13.2511 18.7063 13.0722 18.886C12.8934 19.0657 12.6508 19.1667 12.3979 19.1667ZM10.4905 15.3333H6.67577C5.91697 15.3333 5.18926 15.0304 4.65271 14.4913C4.11616 13.9521 3.81472 13.2208 3.81472 12.4583C3.81472 11.6958 4.11616 10.9646 4.65271 10.4254C5.18926 9.88623 5.91697 9.58333 6.67577 9.58333H10.4905C11.2493 9.58333 11.977 9.88623 12.5136 10.4254C13.0501 10.9646 13.3515 11.6958 13.3515 12.4583C13.3515 13.2208 13.0501 13.9521 12.5136 14.4913C11.977 15.0304 11.2493 15.3333 10.4905 15.3333Z" fill="#6D7E5E"/>
</svg>
