<svg width="18" height="21" viewBox="0 0 18 21" fill="none" xmlns="http://www.w3.org/2000/svg">
<g clip-path="url(#clip0_203_796)">
<path fill-rule="evenodd" clip-rule="evenodd" d="M13.5 14.7H4.5V8.4C4.5 5.6007 6.75 4.2 8.99894 4.2H9.00106C11.25 4.2 13.5 5.6007 13.5 8.4V14.7ZM10.1245 17.85C10.1245 18.4296 9.62047 18.9 9 18.9C8.37847 18.9 7.87447 18.4296 7.87447 17.85V16.8H10.1245V17.85ZM16.8745 14.7C16.254 14.7 15.75 14.2296 15.75 13.65V8.4C15.75 4.66935 13.086 2.59875 10.1245 2.18295V1.05C10.1245 0.4704 9.62047 0 9 0C8.37847 0 7.87447 0.4704 7.87447 1.05V2.18295C4.914 2.59875 2.25 4.66935 2.25 8.4V13.65C2.25 14.2296 1.746 14.7 1.12447 14.7C0.504 14.7 0 15.1704 0 15.75C0 16.3296 0.504 16.8 1.12553 16.8H5.62553V17.85C5.62553 19.5898 7.13541 21 9 21C10.8635 21 12.3755 19.5898 12.3755 17.85V16.8H16.8755C17.496 16.8 18 16.3296 18 15.75C18 15.1704 17.496 14.7 16.8745 14.7Z" fill="#3F3D56" fill-opacity="0.6"/>
</g>
<defs>
<clipPath id="clip0_203_796">
<rect width="18" height="21" fill="white"/>
</clipPath>
</defs>
</svg>
