<svg width="60" height="60" viewBox="0 0 60 60" fill="none" xmlns="http://www.w3.org/2000/svg">
<circle cx="30" cy="30" r="30" fill="#4E6E4E"/>
<path d="M18.6667 36.1884C18.6667 43.1884 18.6667 43.1884 13 43.1884M26.2222 36.1884C26.2222 43.1884 26.2222 43.1884 30 43.1884" stroke="#E6ECD6" stroke-width="2"/>
<path d="M15.4657 36.0849L22.7586 26.6681L30.0516 36.0849H15.4657Z" fill="#E6ECD6" stroke="#E6ECD6" stroke-width="0.5"/>
<path d="M15.4657 30.7509L22.7586 21.3341L30.0516 30.7509H15.4657Z" fill="#E6ECD6" stroke="#E6ECD6" stroke-width="0.5"/>
<path d="M15.4657 25.4168L22.7586 16L30.0516 25.4168H15.4657Z" fill="#E6ECD6" stroke="#E6ECD6" stroke-width="0.5"/>
<path d="M34 36.1884C34 43.1884 34 43.1884 30 43.1884M42 36.1884C42 43.1884 42 43.1884 48 43.1884" stroke="#E6ECD6" stroke-width="2"/>
<path d="M30.73 36.0849L38.023 26.6681L45.3159 36.0849H30.73Z" fill="#E6ECD6" stroke="#E6ECD6" stroke-width="0.5"/>
<path d="M30.73 30.7509L38.023 21.3341L45.3159 30.7509H30.73Z" fill="#E6ECD6" stroke="#E6ECD6" stroke-width="0.5"/>
<path d="M30.73 25.4168L38.023 16L45.3159 25.4168H30.73Z" fill="#E6ECD6" stroke="#E6ECD6" stroke-width="0.5"/>
</svg>
