<svg width="23" height="20" viewBox="0 0 23 20" fill="none" xmlns="http://www.w3.org/2000/svg">
<path d="M6.79943 0.715869C7.24199 1.11567 7.27776 1.79399 6.87989 2.23872L3.66122 5.83247C3.46452 6.05259 3.18736 6.18286 2.89231 6.18735C2.59727 6.19184 2.31563 6.07954 2.10553 5.8729L0.312904 4.07602C-0.102842 3.65376 -0.102842 2.97095 0.312904 2.54868C0.728649 2.12642 1.41262 2.12642 1.82836 2.54868L2.81632 3.54145L5.2795 0.792236C5.67736 0.347509 6.35239 0.311572 6.79496 0.711376L6.79943 0.715869ZM6.79943 7.90337C7.24199 8.30317 7.27776 8.98149 6.87989 9.42622L3.66122 13.02C3.46452 13.2401 3.18736 13.3704 2.89231 13.3749C2.59727 13.3793 2.31563 13.267 2.10553 13.0604L0.312904 11.2635C-0.107312 10.8413 -0.107312 10.1584 0.312904 9.74067C0.733119 9.3229 1.41262 9.31841 1.82836 9.74067L2.81632 10.7334L5.2795 7.98423C5.67736 7.5395 6.35239 7.50356 6.79496 7.90337H6.79943ZM10.0136 3.31235C10.0136 2.51724 10.6529 1.87485 11.4442 1.87485H21.4578C22.2491 1.87485 22.8883 2.51724 22.8883 3.31235C22.8883 4.10747 22.2491 4.74985 21.4578 4.74985H11.4442C10.6529 4.74985 10.0136 4.10747 10.0136 3.31235ZM10.0136 10.4999C10.0136 9.70474 10.6529 9.06235 11.4442 9.06235H21.4578C22.2491 9.06235 22.8883 9.70474 22.8883 10.4999C22.8883 11.295 22.2491 11.9374 21.4578 11.9374H11.4442C10.6529 11.9374 10.0136 11.295 10.0136 10.4999ZM7.15259 17.6874C7.15259 16.8922 7.79185 16.2499 8.58311 16.2499H21.4578C22.2491 16.2499 22.8883 16.8922 22.8883 17.6874C22.8883 18.4825 22.2491 19.1249 21.4578 19.1249H8.58311C7.79185 19.1249 7.15259 18.4825 7.15259 17.6874ZM2.14576 15.5311C2.71486 15.5311 3.26064 15.7583 3.66306 16.1627C4.06547 16.567 4.29154 17.1155 4.29154 17.6874C4.29154 18.2592 4.06547 18.8077 3.66306 19.2121C3.26064 19.6164 2.71486 19.8436 2.14576 19.8436C1.57666 19.8436 1.03087 19.6164 0.628462 19.2121C0.22605 18.8077 -2.31232e-05 18.2592 -2.31232e-05 17.6874C-2.31232e-05 17.1155 0.22605 16.567 0.628462 16.1627C1.03087 15.7583 1.57666 15.5311 2.14576 15.5311Z" fill="#6D7E5E"/>
</svg>
